<svg xmlns="http://www.w3.org/2000/svg" xmlns:xlink="http://www.w3.org/1999/xlink" width="100" height="100" viewBox="0 0 100 100"><g><g transform="translate(50 50) scale(0.69 0.69) rotate(0) translate(-50 -50)" style="fill:#FF0000"><svg fill="#FF0000" xmlns="http://www.w3.org/2000/svg" xmlns:xlink="http://www.w3.org/1999/xlink" version="1.1" x="0px" y="0px" viewBox="0 0 100 100" style="enable-background:new 0 0 100 100;" xml:space="preserve"><g><path d="M50.4,67.2c-1.2,1.3-2.2,2.4-3.3,3.6c-2.5,2.8-5,5.6-7.6,8.3c-2,2.1-3.8,4.3-5.4,6.7c-0.3,0.4-0.6,1-1,1.3   c-0.4,0.3-1.1,0.6-1.6,0.5c-0.3-0.1-0.8-0.8-0.8-1.2c-0.1-3.5-0.3-7.1-0.3-10.6c0.2-6.5,0.6-13.1,0.3-19.6c-0.1-1.4-0.7-2.3-1.8-3   c-3.1-2-6.2-4-9.3-6c-1.5-1-3.1-2.1-4.6-3.1c-0.3-0.2-0.5-0.4-0.7-0.7c-0.7-1-0.4-1.9,0.8-2.1c7.9-1.5,15.8-3.1,23.7-4.7   c0.9-0.2,1.7-0.5,2.6-0.8c2.6-5.9,5.3-11.7,7.9-17.7c0.7-1.6,1-3.4,1.5-5.1c0.2-0.8,0.5-1.7,0.7-2.4c1.7-0.2,2.5,0.5,2.9,1.8   c1.2,3.5,2.3,7,3.5,10.5c1.2,3.3,2.4,6.7,3.6,10c0.1,0.3,0.3,0.5,0.3,0.8c0.2,1.9,1.3,2.6,3.1,2.7c4,0.4,8,0.9,12,1.4   c3.1,0.4,6.2,0.8,9.3,1.1c0.8,0.1,1.6,0,2.4,0c0.9-0.1,1.6,0.3,1.9,1.2c0.3,0.8-0.1,1.5-0.7,2c-1.5,1-3,2.1-4.6,3.1   c-2.8,1.7-5.7,3.3-8.5,5c-1.2,0.7-2.4,1.6-3.4,2.6c-1.6,1.4-2.5,3-2.1,5.5c1,5.8,1.5,11.8,2.1,17.7c0.3,2.6,0.6,5.1,0.9,7.7   c0,0.4,0.1,0.8,0.1,1.2c-0.2,1-1.2,1.4-2,0.8c-0.1-0.1-0.2-0.2-0.3-0.3c-2.6-3.3-6.4-5.1-9.5-7.7c-3.1-2.7-6.4-5.1-9.6-7.7   C52.4,68.9,51.5,68.1,50.4,67.2z M59.9,61.2c-0.5-3.2-1-6-1.5-8.8c-0.3-1.8-0.3-1.7,1.3-2.5c1.7-0.8,3.3-1.5,4.9-2.4   c0.8-0.4,1.5-1,2.2-1.5c-0.4-1-1-1.3-1.8-1.5c-3.1-0.6-6.1-1.3-9.2-1.8c-0.9-0.2-1.4-0.5-1.6-1.3c-0.2-0.5-0.3-1-0.6-1.5   c-0.7-1.5-1.3-3-2-4.6c-0.2,0-0.3,0-0.5,0c-0.3,0.7-0.6,1.5-0.8,2.2c-0.6,1.9-1.1,3.9-2.4,5.5c-0.6,0.7-1,1.1-1.9,1.2   c-2.5,0.2-5,0.5-7.5,0.7c-0.8,0.1-1.7,0.1-2.5,0.8c0.4,0.2,0.6,0.4,0.8,0.5c1.4,0.7,2.8,1.4,4.2,2.1c1.1,0.6,1.5,1.2,0.9,2.1   c-1.5,2.5-1.7,5.3-2.3,8c-0.2,1-0.4,2.1,0.4,3.3c0.5-0.3,0.8-0.5,1.2-0.8c1.4-1.1,2.8-2.2,4.1-3.3c0.7-0.6,1.5-1.2,2.1-1.8   c0.8-0.8,1.2-0.8,2,0c0.6,0.6,1.3,1.2,2,1.6c1.2,0.7,2.6,1.2,3.9,1.8C56.8,59.9,58.2,60.5,59.9,61.2z M66.9,66.9   c0.8,0.6,1.3,0.9,1.3,1.9c0,1,0.5,2.2,1.2,3c0.9,1,1.9,1.9,1.4,3.4c-0.2,0.6,0,0.9,0.8,0.7c-0.5-7-1-13.9-2-20.9   c-0.8,0.9-1.4,1.7-2,2.5c-0.1,0.4,0.3,1.2,0.9,1.6c0.9,0.6,1,1.4,0.7,2.3c-0.3,0.9-0.7,1.8-1.1,2.6C67.7,64.9,67.3,65.8,66.9,66.9z    M32.8,83c0.1,0.1,0.3,0.2,0.4,0.2c3.2-4.4,8-7.2,11.1-11.7c-0.8-0.3-1.4-0.6-2-0.8c-1.3,2-2.3,4-3.8,4.1c-0.7,2.5-0.7,2.5-3.7,3.4   c-0.1,1.4-0.8,2.3-2.3,2.5C32.6,81.5,32.7,82.2,32.8,83z M56.2,27.7c0.5,0.9,1.3,1.8,1.1,2.2c-0.6,1.4,0,2.5,0.5,3.6   c0.3,0.7,1,1.3,1.1,2c0.2,1,0.9,1.2,1.9,1.4c-0.6-3.9-2.3-7.2-3.7-11C56.6,26.9,56.3,27.4,56.2,27.7z M77.2,39.7   c-4.8-0.9-9.3-1.1-13.9-1.2c0.6,0.3,1.3,0.4,2,0.5c1.1,0.1,2.3,0.1,3.3,0.4c1.2,0.4,2.4,1.2,3.5,1.9c1-0.9,1.8-1.8,3.1-0.6   C75.9,41.4,76.5,40.6,77.2,39.7z M57.1,62.5c-0.2-1.2-0.9-1.4-1.5-1.6c-1.7-0.8-3.6-1.3-5.2-2.3c-1.8-1.1-3.1-0.6-4.5,0.7   c0.6,0.1,1.2-0.1,1.8-0.1c0.4-0.1,1-0.2,1.3,0c1.9,1.2,3.7,2.3,6,2.5C55.8,61.7,56.3,62.1,57.1,62.5z M53.5,15.2   c-0.2,0-0.3,0-0.5,0c-0.7,1.6-1.3,3.2-2.2,5.2c1-0.4,1.5-0.7,2-0.8c0.6-0.2,1.2-0.2,2-0.3C54.4,18,53.9,16.6,53.5,15.2z M60.1,56.4   c0.7,1.9,0.7,3.7,1.7,5.4c1.8-1.5,0.4-3.4,1.4-4.8C62.2,56.8,61.4,56.7,60.1,56.4z M45.7,30.3c0.7,0.5,1.5,1,1.8,0.1   c0.7-1.7,1.1-3.5,1.7-5.3c-0.2-0.1-0.3-0.2-0.5-0.2C47.8,26.6,46.8,28.4,45.7,30.3z M34.8,39.3c-2,0-3.7,0.6-6,1.2   c0.9,0.5,1.4,0.8,1.9,1.1c0.8-0.5,1.6-0.9,2.2-0.8C34.1,41.1,34.5,40.6,34.8,39.3z M60.1,54.6c2.1-2,2.9-3.3,3.1-4.6   c-1.2,0.7-2.2,1.2-3.3,1.9C59.9,52.6,60,53.4,60.1,54.6z M41.1,62.7c2,1,2.4-0.8,3.5-1.1c0.6-0.2,0.7-1,0.3-2.1   C43.7,60.6,42.5,61.6,41.1,62.7z M69.6,46.9c-1.8,0.3-4.8,2.1-5.6,3.3C66.4,49.8,68,48.2,69.6,46.9z M44.4,70.5   c0.2,0.1,0.4,0.2,0.6,0.3c0.7-0.9,1.4-1.7,2.3-2.8c-1-0.1-1.5-0.2-2.3-0.3C44.8,68.8,44.6,69.6,44.4,70.5z M75.2,48.9   c1-0.7,1.8-1.3,2.9-2C75.3,45.9,75,46.1,75.2,48.9z M72,77.6c-0.2-0.1-0.4-0.1-0.5-0.2c-0.4,0.8-0.8,1.6-1.2,2.5   c0.7,0.4,1.2,0.6,1.9,1C72.1,79.7,72.1,78.7,72,77.6z M56.3,24.9c0.1-0.1,0.3-0.2,0.4-0.3c-0.4-1-0.7-1.9-1.1-2.9   c-0.1,0-0.3,0-0.4,0.1c-0.2,0.6-0.4,1.2-0.7,2C55.1,24.1,55.7,24.5,56.3,24.9z M61.6,65.8c0.7-0.7,1-1.4,0.3-2.3   c-0.7,0.2-1.4,0.5-2.3,0.8C60.4,64.9,61,65.3,61.6,65.8z M33.2,58.1c0.1,0,0.2,0,0.3,0c0.3-0.8,0.6-1.6,0.9-2.4   c0.2-0.5,0-1.1-0.5-1.1c-0.3,0-0.8,0.5-0.8,0.8C33,56.3,33.2,57.2,33.2,58.1z M37.7,59.3c1.1-1.6,1.1-1.6,0.8-3.6   C37.3,56.7,37.3,57.8,37.7,59.3z M44.4,37.3c0.1-1.3,0.2-2.4,0.3-3.5c-0.9,0.9-1.5,1.8-1.3,3C43.5,37,44,37.1,44.4,37.3z    M38.9,42.6c1.4,1,1.5,1,2.4,0C40.4,42.6,39.6,42.6,38.9,42.6z M62,74c0.1-0.2,0.3-0.4,0.4-0.6c-0.5-0.6-0.9-1.2-2.4-0.9   C60.8,73.2,61.4,73.6,62,74z M54.3,68c0.6,0.5,1.3,1,2.1,1.7C56.4,68.5,56.4,68.5,54.3,68z M18.3,43.1c0,0.1-0.1,0.3-0.1,0.4   c0.4,0.3,0.8,0.5,1.4,0.9c0.1-0.6,0.2-1,0.3-1.5C19.2,43,18.8,43,18.3,43.1z M86.6,41.2c-1.4-0.3-1.4-0.3-1.3,1   C85.8,41.9,86.1,41.6,86.6,41.2z M80,40.1c-0.1,0.2-0.1,0.3-0.2,0.5c0.7,0.1,1.4,0.3,2.1,0.4c0-0.2,0.1-0.3,0.1-0.5   C81.4,40.3,80.7,40.2,80,40.1z M49,66.5c-0.2-0.2-0.3-0.3-0.5-0.5c-1.1-0.2-1.1,0.4-0.5,1.6C48.4,67.2,48.7,66.8,49,66.5z    M25.1,41.4c1.2,0.7,1.2,0.8,1.6,0.4c0.2-0.1,0.2-0.4,0.4-0.9C26.4,41,26,41.2,25.1,41.4z M65.7,75.7c-0.4-0.3-0.6-0.5-0.9-0.5   c-0.1,0-0.3,0.3-0.5,0.5c0.2,0.2,0.4,0.4,0.7,0.5C65.2,76.3,65.4,76,65.7,75.7z M33.3,72c-0.2,0-0.3,0-0.5,0c0,0.4,0,0.9,0,1.3   c0.1,0,0.2,0,0.4,0C33.2,72.9,33.2,72.5,33.3,72z"></path></g></svg></g></g></svg>